<?xml version="1.0" encoding="UTF-8"?>
<!-- Generator: Adobe Illustrator 19.0.0, SVG Export Plug-In . SVG Version: 6.00 Build 0)  -->
<svg xmlns="http://www.w3.org/2000/svg" xmlns:xlink="http://www.w3.org/1999/xlink" id="Capa_1" x="0px" y="0px" viewBox="0 0 595.3 300" style="enable-background:new 0 0 595.3 300;" xml:space="preserve">
<style type="text/css">
	.st0{fill:#DFA52E;}
	.st1{fill:#2D6E3D;}
	.st2{fill:#5D5D5D;}
</style>
<g id="XMLID_17_">
	<g id="XMLID_89_">
		<path id="XMLID_94_" d="M177.8,90.3c0,0-5.2-14-13.6-21.1c-5.5-4.7-16.1-9.7-22.9-12.6L143,54c0.2-0.3,0-0.7-0.3-0.8l-8.5-3.1    c-0.7-0.2-1.4-0.3-2.1-0.1l-2.4,0.7c-0.1,0-0.2,0.1-0.3,0.2l-0.9,1.2L112.1,48c0,0-11.6,4.8-46.9,24s-32.9,8.8-34.1,59.1    c-0.6,26.4,18.3,54.6,36.4,75.4c-8.5,1.7-20,5-15.9,10c6.4,7.6,13.6,12.1,13.6,12.1l19.5,4.5l6.8-2c5,4.6,8.2,7.1,8.2,7.1    l13.6-7.6c0,0,48.2-53,58.2-79.6S177.8,90.3,177.8,90.3z"/>
		<path id="XMLID_93_" class="st0" d="M46.5,130.3c0,0-3.4-27.5-2.4-38.8c57.7-8.2,89.9-41.3,89.9-41.3c-4.4-1.1-31.5-17-31.5-17    C57.9,61.7,9.3,60.2,9.3,60.2s0.4,7,0.7,59c0.4,59,47.7,103.6,47.7,103.6s24.1-5.5,38.2-15.7C95.9,207.1,52,177.8,46.5,130.3z"/>
		<polygon id="XMLID_92_" class="st1" points="102.5,83.9 55.6,154.5 102.5,115.1 149.3,154.5   "/>
		<circle id="XMLID_91_" class="st0" cx="102.1" cy="145.1" r="14"/>
		<path id="XMLID_90_" class="st2" d="M142.4,53.1c0,0-18.8,18.1-32.2,23.9c0,0,27.5,11.8,50.1,13.6    c5.1,119.9-95.1,137.9-95.1,137.9c25.2,18.1,37.3,20.4,37.3,20.4c54-17.7,91.6-77.3,92.2-122.6c0.5-45.4,1.3-66.1,1.3-66.1    S157.2,58.6,142.4,53.1z"/>
	</g>
	<g id="XMLID_64_">
		<path id="XMLID_86_" d="M237,143.6h16.2c2.2,0,4.2,0.3,6,0.8c1.8,0.5,3.4,1.3,4.7,2.4c1.3,1.1,2.3,2.5,3,4.2    c0.7,1.7,1.1,3.7,1.1,6c0,4.8-1.2,8.3-3.7,10.5s-6,3.3-10.7,3.3h-6v13.5H237V143.6z M247.6,162.2h1.8c1,0,1.9,0,2.8-0.1    c0.9-0.1,1.7-0.2,2.4-0.5c0.7-0.3,1.3-0.8,1.7-1.5c0.4-0.7,0.6-1.6,0.6-2.9c0-1.3-0.2-2.3-0.6-3c-0.4-0.7-1-1.2-1.6-1.5    c-0.7-0.3-1.5-0.5-2.4-0.6c-0.9-0.1-1.9-0.1-2.9-0.1h-1.8V162.2z"/>
		<path id="XMLID_83_" d="M306.5,184.3h-13.2l-10-15.6h-0.1v15.6h-10.6v-40.7h15.8c2,0,3.9,0.2,5.6,0.7c1.7,0.5,3.2,1.2,4.5,2.3    c1.3,1,2.2,2.3,3,3.9c0.7,1.6,1.1,3.5,1.1,5.6c0,1.4-0.2,2.7-0.6,4c-0.4,1.3-0.9,2.4-1.7,3.5c-0.8,1-1.7,1.9-2.8,2.6    c-1.1,0.7-2.4,1.2-3.8,1.4L306.5,184.3z M283.2,161.8h1c0.9,0,1.7-0.1,2.6-0.2c0.9-0.1,1.6-0.3,2.3-0.7c0.7-0.4,1.3-0.9,1.7-1.5    c0.4-0.7,0.7-1.6,0.7-2.7c0-1.1-0.2-2-0.7-2.7c-0.5-0.7-1-1.2-1.7-1.5c-0.7-0.4-1.5-0.6-2.3-0.7c-0.9-0.1-1.7-0.2-2.6-0.2h-1    V161.8z"/>
		<path id="XMLID_80_" d="M329.8,142.2c2.9,0,5.7,0.5,8.4,1.5c2.7,1,5.1,2.5,7.2,4.3c2.1,1.9,3.8,4.1,5,6.6c1.2,2.6,1.9,5.4,1.9,8.4    c0,3.3-0.6,6.3-1.7,9.1c-1.1,2.7-2.7,5.1-4.7,7.1c-2,2-4.4,3.5-7.1,4.6c-2.8,1.1-5.8,1.6-9,1.6c-3.3,0-6.3-0.5-9-1.6    c-2.8-1.1-5.1-2.6-7.1-4.6s-3.6-4.4-4.7-7.1c-1.1-2.7-1.7-5.8-1.7-9.1c0-3.1,0.6-5.9,1.9-8.4c1.2-2.6,2.9-4.8,5-6.6    c2.1-1.9,4.5-3.3,7.2-4.3C324.1,142.7,326.9,142.2,329.8,142.2z M329.8,152.5c-1.6,0-3.1,0.3-4.5,0.9c-1.4,0.6-2.6,1.4-3.6,2.4    c-1,1-1.9,2.1-2.5,3.4c-0.6,1.3-0.9,2.6-0.9,4c0,1.8,0.3,3.4,0.9,4.9c0.6,1.5,1.4,2.8,2.5,3.8c1,1.1,2.3,1.9,3.6,2.5    c1.4,0.6,2.9,0.9,4.5,0.9c1.6,0,3.1-0.3,4.5-0.9c1.4-0.6,2.6-1.5,3.6-2.5c1-1.1,1.9-2.4,2.5-3.8c0.6-1.5,0.9-3.1,0.9-4.9    c0-1.4-0.3-2.8-0.9-4c-0.6-1.3-1.4-2.4-2.5-3.4c-1-1-2.3-1.8-3.6-2.4C332.9,152.8,331.4,152.5,329.8,152.5z"/>
		<path id="XMLID_78_" d="M373.4,184.3h-10.6v-31.7h-8.7v-9h28.1v9h-8.7V184.3z"/>
		<path id="XMLID_76_" d="M396.5,152.5v6.8h11.9v9h-11.9v7h12.6v9H386v-40.7h23.2v9H396.5z"/>
		<path id="XMLID_74_" d="M444.7,157.2c-1.1-1.5-2.4-2.6-4.1-3.3c-1.6-0.8-3.4-1.1-5.2-1.1c-1.6,0-3.1,0.3-4.4,0.9    c-1.3,0.6-2.5,1.4-3.4,2.4c-1,1-1.7,2.2-2.2,3.6c-0.5,1.4-0.8,2.8-0.8,4.4c0,1.6,0.3,3.1,0.8,4.5c0.5,1.3,1.3,2.5,2.2,3.5    s2.1,1.7,3.5,2.3c1.3,0.6,2.9,0.8,4.5,0.8c1.7,0,3.4-0.4,5-1.2c1.6-0.8,3-1.8,4.1-3.2v12.7c-1.8,0.5-3.3,1-4.7,1.3    c-1.4,0.4-2.9,0.5-4.6,0.5c-2.8,0-5.6-0.5-8.2-1.5c-2.6-1-5-2.5-7.1-4.5c-2.3-2.1-3.9-4.4-5-6.9c-1-2.6-1.6-5.4-1.6-8.4    c0-2.8,0.5-5.5,1.5-8c1-2.6,2.5-4.8,4.5-6.9c2-2.1,4.4-3.7,7.1-4.8c2.7-1.2,5.5-1.8,8.4-1.8c1.7,0,3.4,0.2,4.9,0.5    c1.6,0.4,3.1,0.9,4.7,1.5V157.2z"/>
		<path id="XMLID_72_" d="M467.5,184.3h-10.6v-31.7h-8.7v-9h28.1v9h-8.7V184.3z"/>
		<path id="XMLID_70_" d="M490.6,184.3H480v-40.7h10.6V184.3z"/>
		<path id="XMLID_67_" d="M518,142.2c2.9,0,5.7,0.5,8.4,1.5c2.7,1,5.1,2.5,7.2,4.3c2.1,1.9,3.8,4.1,5,6.6c1.2,2.6,1.9,5.4,1.9,8.4    c0,3.3-0.6,6.3-1.7,9.1c-1.1,2.7-2.7,5.1-4.7,7.1s-4.4,3.5-7.1,4.6c-2.8,1.1-5.8,1.6-9,1.6c-3.3,0-6.3-0.5-9-1.6    c-2.8-1.1-5.1-2.6-7.1-4.6c-2-2-3.6-4.4-4.7-7.1c-1.1-2.7-1.7-5.8-1.7-9.1c0-3.1,0.6-5.9,1.9-8.4c1.2-2.6,2.9-4.8,5-6.6    c2.1-1.9,4.5-3.3,7.2-4.3C512.2,142.7,515.1,142.2,518,142.2z M518,152.5c-1.6,0-3.1,0.3-4.5,0.9c-1.4,0.6-2.6,1.4-3.6,2.4    c-1,1-1.9,2.1-2.5,3.4c-0.6,1.3-0.9,2.6-0.9,4c0,1.8,0.3,3.4,0.9,4.9c0.6,1.5,1.4,2.8,2.5,3.8c1,1.1,2.3,1.9,3.6,2.5    c1.4,0.6,2.9,0.9,4.5,0.9c1.6,0,3.1-0.3,4.5-0.9c1.4-0.6,2.6-1.5,3.6-2.5c1-1.1,1.9-2.4,2.5-3.8c0.6-1.5,0.9-3.1,0.9-4.9    c0-1.4-0.3-2.8-0.9-4c-0.6-1.3-1.4-2.4-2.5-3.4c-1-1-2.3-1.8-3.6-2.4C521,152.8,519.5,152.5,518,152.5z"/>
		<path id="XMLID_65_" d="M545.4,143.6H556l19.4,24.9h0.1v-24.9H586v40.7h-10.6l-19.4-24.9H556v24.9h-10.6V143.6z"/>
	</g>
	<g id="XMLID_18_">
		<path id="XMLID_62_" d="M256.3,249h-10.6v-31.7H237v-9H265v9h-8.7V249z"/>
		<path id="XMLID_60_" d="M279.4,217.3v6.8h11.9v9h-11.9v7H292v9h-23.2v-40.7H292v9H279.4z"/>
		<path id="XMLID_57_" d="M308.9,241.9l-2.8,7.1h-11.2l15.6-40.7h11.5l15.3,40.7h-11.3l-2.6-7.1H308.9z M316.3,220.9h-0.1l-4.4,13    h8.8L316.3,220.9z"/>
		<path id="XMLID_19_" d="M345.2,208.3h10.4l8.3,21.7l8.7-21.7h10.5l6.2,40.7h-10.6l-3-23.4h-0.1l-9.8,23.4h-4.2l-9.3-23.4h-0.1    l-3.4,23.4h-10.5L345.2,208.3z"/>
	</g>
</g>
</svg>